<svg width="135" height="63" viewBox="0 0 135 63" fill="none" xmlns="http://www.w3.org/2000/svg">
<path d="M16.0933 25V1.288H20.8293V21.032H30.4613V25H16.0933ZM40.9933 25V1.288H45.7293V25H40.9933ZM68.1318 25.448C65.9984 25.448 64.0678 24.9787 62.3398 24.04C60.6331 23.1013 59.2784 21.7253 58.2758 19.912C57.2731 18.0987 56.7718 15.88 56.7718 13.256C56.7718 11.2933 57.0598 9.55467 57.6358 8.04C58.2331 6.504 59.0544 5.20267 60.0998 4.136C61.1451 3.06933 62.3504 2.25867 63.7158 1.704C65.0811 1.14933 66.5531 0.872 68.1318 0.872C69.8384 0.872 71.2891 1.192 72.4838 1.832C73.6998 2.45067 74.6918 3.144 75.4598 3.912L72.9318 6.92C72.3344 6.36533 71.6731 5.896 70.9478 5.512C70.2438 5.128 69.3584 4.936 68.2918 4.936C66.9691 4.936 65.8064 5.26667 64.8038 5.928C63.8011 6.568 63.0224 7.496 62.4678 8.712C61.9131 9.928 61.6358 11.3893 61.6358 13.096C61.6358 14.824 61.8918 16.3067 62.4038 17.544C62.9371 18.76 63.7264 19.6987 64.7718 20.36C65.8171 21.0213 67.1078 21.352 68.6438 21.352C69.2198 21.352 69.7744 21.2773 70.3078 21.128C70.8411 20.9573 71.2678 20.7333 71.5878 20.456V15.784H67.3958V11.912H75.8438V22.6C75.0331 23.3893 73.9558 24.0613 72.6118 24.616C71.2678 25.1707 69.7744 25.448 68.1318 25.448ZM87.2932 25V1.288H92.0292V10.664H100.989V1.288H105.693V25H100.989V14.76H92.0292V25H87.2932ZM122.616 25V5.256H115.96V1.288H134.04V5.256H127.352V25H122.616ZM0.405744 62V38.288H5.14174V47.664H14.1017V38.288H18.8057V62H14.1017V51.76H5.14174V62H0.405744ZM40.4325 62.448C38.3418 62.448 36.4965 61.9573 34.8965 60.976C33.3178 59.9733 32.0805 58.544 31.1845 56.688C30.2885 54.832 29.8405 52.6133 29.8405 50.032C29.8405 47.472 30.2885 45.2853 31.1845 43.472C32.0805 41.6587 33.3178 40.272 34.8965 39.312C36.4965 38.352 38.3418 37.872 40.4325 37.872C42.5445 37.872 44.3898 38.3627 45.9685 39.344C47.5472 40.304 48.7845 41.6907 49.6805 43.504C50.5765 45.296 51.0245 47.472 51.0245 50.032C51.0245 52.6133 50.5765 54.832 49.6805 56.688C48.7845 58.544 47.5472 59.9733 45.9685 60.976C44.3898 61.9573 42.5445 62.448 40.4325 62.448ZM40.4325 58.352C41.6058 58.352 42.6192 58.0107 43.4725 57.328C44.3472 56.6453 45.0192 55.6853 45.4885 54.448C45.9578 53.1893 46.1925 51.7173 46.1925 50.032C46.1925 48.3467 45.9578 46.9067 45.4885 45.712C45.0192 44.496 44.3472 43.568 43.4725 42.928C42.6192 42.2667 41.6058 41.936 40.4325 41.936C39.2592 41.936 38.2352 42.2667 37.3605 42.928C36.5072 43.568 35.8458 44.496 35.3765 45.712C34.9285 46.9067 34.7045 48.3467 34.7045 50.032C34.7045 51.7173 34.9285 53.1893 35.3765 54.448C35.8458 55.6853 36.5072 56.6453 37.3605 57.328C38.2352 58.0107 39.2592 58.352 40.4325 58.352ZM71.1695 62.448C69.6975 62.448 68.3962 62.2453 67.2655 61.84C66.1348 61.4133 65.1642 60.752 64.3535 59.856C63.5642 58.96 62.9668 57.808 62.5615 56.4C62.1562 54.992 61.9535 53.3067 61.9535 51.344V38.288H66.6575V51.76C66.6575 53.4027 66.8388 54.704 67.2015 55.664C67.5642 56.624 68.0762 57.3173 68.7375 57.744C69.4202 58.1493 70.2308 58.352 71.1695 58.352C72.1082 58.352 72.9188 58.1493 73.6015 57.744C74.2842 57.3173 74.8068 56.624 75.1695 55.664C75.5535 54.704 75.7455 53.4027 75.7455 51.76V38.288H80.2895V51.344C80.2895 53.3067 80.0868 54.992 79.6815 56.4C79.2762 57.808 78.6788 58.96 77.8895 59.856C77.1002 60.752 76.1402 61.4133 75.0095 61.84C73.8788 62.2453 72.5988 62.448 71.1695 62.448ZM98.9277 62.448C97.3491 62.448 95.8024 62.1493 94.2877 61.552C92.7731 60.9547 91.4397 60.1013 90.2877 58.992L93.0077 55.728C93.8397 56.5173 94.7891 57.1573 95.8557 57.648C96.9437 58.1173 97.9997 58.352 99.0237 58.352C100.261 58.352 101.2 58.1067 101.84 57.616C102.48 57.1253 102.8 56.464 102.8 55.632C102.8 55.0347 102.64 54.5653 102.32 54.224C102.021 53.8613 101.605 53.5413 101.072 53.264C100.538 52.9867 99.9197 52.7093 99.2157 52.432L96.0797 51.056C95.2904 50.736 94.5224 50.3093 93.7757 49.776C93.0504 49.2213 92.4424 48.528 91.9517 47.696C91.4824 46.864 91.2477 45.872 91.2477 44.72C91.2477 43.4187 91.5997 42.256 92.3037 41.232C93.0077 40.208 93.9784 39.3973 95.2157 38.8C96.4531 38.1813 97.8611 37.872 99.4397 37.872C100.848 37.872 102.202 38.1387 103.504 38.672C104.805 39.2053 105.936 39.9627 106.896 40.944L104.496 43.888C103.749 43.2693 102.97 42.7893 102.16 42.448C101.349 42.1067 100.442 41.936 99.4397 41.936C98.4157 41.936 97.5944 42.16 96.9757 42.608C96.3784 43.0347 96.0797 43.6427 96.0797 44.432C96.0797 44.9867 96.2504 45.4453 96.5917 45.808C96.9331 46.1707 97.3811 46.4907 97.9357 46.768C98.4904 47.024 99.0984 47.2907 99.7597 47.568L102.864 48.816C103.824 49.2 104.656 49.68 105.36 50.256C106.085 50.832 106.64 51.5253 107.024 52.336C107.429 53.1467 107.632 54.128 107.632 55.28C107.632 56.56 107.28 57.744 106.576 58.832C105.893 59.92 104.901 60.7947 103.6 61.456C102.32 62.1173 100.762 62.448 98.9277 62.448ZM118.224 62V38.288H132.752V42.256H122.96V47.728H131.248V51.696H122.96V58.032H133.104V62H118.224Z" fill="#F9F5F1"/>
</svg>
