<svg width="38" height="38" viewBox="0 0 38 38" fill="none" xmlns="http://www.w3.org/2000/svg">
<path d="M19 19C19 19 16.0695 15 11.5497 15C7.0298 15 4 19 4 19" stroke="#F9F5F1" stroke-width="8" stroke-linecap="round"/>
<path d="M34 19C34 19 31.0695 23 26.5497 23C22.0298 23 19 19 19 19" stroke="#F9F5F1" stroke-width="8" stroke-linecap="round"/>
<path d="M19 19C19 19 15 21.9305 15 26.4503C15 30.9702 19 34 19 34" stroke="#F9F5F1" stroke-width="8" stroke-linecap="round"/>
<path d="M19 4C19 4 23 6.93046 23 11.4503C23 15.9702 19 19 19 19" stroke="#F9F5F1" stroke-width="8" stroke-linecap="round"/>
<path d="M19 19C19 19 16.0695 15 11.5497 15C7.0298 15 4 19 4 19" stroke="#2078CA" stroke-width="4" stroke-linecap="round"/>
<path d="M34 19C34 19 31.0695 23 26.5497 23C22.0298 23 19 19 19 19" stroke="#2078CA" stroke-width="4" stroke-linecap="round"/>
</svg>
