<svg width="38" height="38" viewBox="0 0 38 38" fill="none" xmlns="http://www.w3.org/2000/svg">
<path d="M19 19C19 19 16.0695 15 11.5497 15C7.0298 15 4 19 4 19" stroke="#F992C9" stroke-width="8" stroke-linecap="round"/>
<path d="M34 19C34 19 31.0695 23 26.5497 23C22.0298 23 19 19 19 19" stroke="#F992C9" stroke-width="8" stroke-linecap="round"/>
<path d="M19 19C19 19 15 21.9305 15 26.4503C15 30.9702 19 34 19 34" stroke="#F992C9" stroke-width="8" stroke-linecap="round"/>
<path d="M19 4C19 4 23 6.93046 23 11.4503C23 15.9702 19 19 19 19" stroke="#F992C9" stroke-width="8" stroke-linecap="round"/>
<path d="M18.8285 19C18.8285 19 18.0722 23.9005 21.2682 27.0965C24.4643 30.2925 29.4352 29.6065 29.4352 29.6065" stroke="#F992C9" stroke-width="8" stroke-linecap="round"/>
<path d="M8.00015 8.82839C8.00015 8.82839 12.9008 8.07213 16.0969 11.2681C19.2929 14.4641 18.6069 19.4349 18.6069 19.4349" stroke="#F992C9" stroke-width="8" stroke-linecap="round"/>
<path d="M19.0002 18.6064C19.0002 18.6064 23.9008 19.3627 27.0969 16.1667C30.2929 12.9707 29.6069 7.99995 29.6069 7.99995" stroke="#F992C9" stroke-width="8" stroke-linecap="round"/>
<path d="M8.82846 29.4348C8.82846 29.4348 8.07218 24.5343 11.2682 21.3383C14.4643 18.1423 19.4352 18.8284 19.4352 18.8284" stroke="#F992C9" stroke-width="8" stroke-linecap="round"/>
<path d="M19 19C19 19 16.0695 15 11.5497 15C7.0298 15 4 19 4 19" stroke="#F9F5F1" stroke-width="4" stroke-linecap="round"/>
<path d="M34 19C34 19 31.0695 23 26.5497 23C22.0298 23 19 19 19 19" stroke="#F9F5F1" stroke-width="4" stroke-linecap="round"/>
<path d="M19 19C19 19 15 21.9305 15 26.4503C15 30.9702 19 34 19 34" stroke="#F9F5F1" stroke-width="4" stroke-linecap="round"/>
<path d="M19 4C19 4 23 6.93046 23 11.4503C23 15.9702 19 19 19 19" stroke="#F9F5F1" stroke-width="4" stroke-linecap="round"/>
</svg>
