<svg width="77" height="6" viewBox="0 0 77 6" fill="none" xmlns="http://www.w3.org/2000/svg">
<path d="M5.0625 1.38171C6.35202 1.38171 7.48246 1.64492 8.2627 2.03503C9.08765 2.44756 9.3125 2.8785 9.3125 3.13171C9.3125 3.38493 9.08765 3.81587 8.2627 4.22839C7.48246 4.61851 6.35202 4.88171 5.0625 4.88171C3.77298 4.88171 2.64254 4.61851 1.8623 4.22839C1.03735 3.81587 0.8125 3.38493 0.8125 3.13171C0.8125 2.8785 1.03735 2.44756 1.8623 2.03503C2.64254 1.64492 3.77298 1.38171 5.0625 1.38171Z" stroke="#F9F5F1" stroke-width="1.5"/>
<path d="M27.0625 1.13171C28.3823 1.13171 29.5523 1.40058 30.374 1.8114C31.2257 2.23724 31.5625 2.73277 31.5625 3.13171C31.5625 3.53066 31.2257 4.02619 30.374 4.45203C29.5523 4.86284 28.3823 5.13171 27.0625 5.13171C25.7427 5.13171 24.5727 4.86284 23.751 4.45203C22.8993 4.02619 22.5625 3.53066 22.5625 3.13171C22.5625 2.73277 22.8993 2.23724 23.751 1.8114C24.5727 1.40058 25.7427 1.13171 27.0625 1.13171Z" fill="#F9F5F1" stroke="#F9F5F1"/>
<path d="M49.0625 1.38171C50.352 1.38171 51.4825 1.64492 52.2627 2.03503C53.0877 2.44756 53.3125 2.8785 53.3125 3.13171C53.3125 3.38493 53.0877 3.81587 52.2627 4.22839C51.4825 4.61851 50.352 4.88171 49.0625 4.88171C47.773 4.88171 46.6425 4.61851 45.8623 4.22839C45.0373 3.81587 44.8125 3.38493 44.8125 3.13171C44.8125 2.8785 45.0373 2.44756 45.8623 2.03503C46.6425 1.64492 47.773 1.38171 49.0625 1.38171Z" stroke="#F9F5F1" stroke-width="1.5"/>
<path d="M71.0625 1.13171C72.3823 1.13171 73.5523 1.40058 74.374 1.8114C75.2257 2.23724 75.5625 2.73277 75.5625 3.13171C75.5625 3.53066 75.2257 4.02619 74.374 4.45203C73.5523 4.86284 72.3823 5.13171 71.0625 5.13171C69.7427 5.13171 68.5727 4.86284 67.751 4.45203C66.8993 4.02619 66.5625 3.53066 66.5625 3.13171C66.5625 2.73277 66.8993 2.23724 67.751 1.8114C68.5727 1.40058 69.7427 1.13171 71.0625 1.13171Z" fill="#F9F5F1" stroke="#F9F5F1"/>
</svg>
