<svg width="69" height="16" viewBox="0 0 69 16" fill="none" xmlns="http://www.w3.org/2000/svg">
<path d="M0.9375 0.881714H8.9375M4.9375 8.88171C4.9375 6.20383 4.9375 1.38171 4.9375 1.38171" stroke="#F9F5F1" stroke-width="1.5"/>
<mask id="path-2-inside-1_2138_564" fill="white">
<path d="M4.6875 7.38171C5.43779 7.38171 6.17084 7.60678 6.79186 8.02782C7.41289 8.44886 7.89333 9.04651 8.17108 9.7435C8.44884 10.4405 8.51112 11.2048 8.3499 11.9375C8.18867 12.6703 7.81134 13.3379 7.26668 13.8539C6.72203 14.3699 6.0351 14.7107 5.29471 14.8322C4.55432 14.9537 3.7945 14.8503 3.1135 14.5354C2.4325 14.2205 1.86162 13.7085 1.47467 13.0657C1.08773 12.4229 0.902504 11.6788 0.942953 10.9295L2.3915 11.0078C2.3667 11.4671 2.48027 11.9234 2.71753 12.3175C2.95479 12.7117 3.30483 13.0256 3.72239 13.2187C4.13995 13.4118 4.60584 13.4752 5.05982 13.4007C5.51379 13.3262 5.93499 13.1173 6.26894 12.8008C6.6029 12.4844 6.83427 12.0751 6.93312 11.6258C7.03198 11.1765 6.99379 10.7079 6.82348 10.2805C6.65318 9.85315 6.35859 9.4867 5.9778 9.22854C5.59702 8.97038 5.14755 8.83238 4.6875 8.83238L4.6875 7.38171Z"/>
</mask>
<path d="M4.6875 7.38171C5.43779 7.38171 6.17084 7.60678 6.79186 8.02782C7.41289 8.44886 7.89333 9.04651 8.17108 9.7435C8.44884 10.4405 8.51112 11.2048 8.3499 11.9375C8.18867 12.6703 7.81134 13.3379 7.26668 13.8539C6.72203 14.3699 6.0351 14.7107 5.29471 14.8322C4.55432 14.9537 3.7945 14.8503 3.1135 14.5354C2.4325 14.2205 1.86162 13.7085 1.47467 13.0657C1.08773 12.4229 0.902504 11.6788 0.942953 10.9295L2.3915 11.0078C2.3667 11.4671 2.48027 11.9234 2.71753 12.3175C2.95479 12.7117 3.30483 13.0256 3.72239 13.2187C4.13995 13.4118 4.60584 13.4752 5.05982 13.4007C5.51379 13.3262 5.93499 13.1173 6.26894 12.8008C6.6029 12.4844 6.83427 12.0751 6.93312 11.6258C7.03198 11.1765 6.99379 10.7079 6.82348 10.2805C6.65318 9.85315 6.35859 9.4867 5.9778 9.22854C5.59702 8.97038 5.14755 8.83238 4.6875 8.83238L4.6875 7.38171Z" stroke="#F9F5F1" stroke-width="3" mask="url(#path-2-inside-1_2138_564)"/>
<line x1="3.27799" y1="3.21346" x2="6.84202" y2="5.02942" stroke="#F9F5F1" stroke-width="1.5"/>
<path d="M20.9375 0.881714H28.9375M24.9375 8.88171C24.9375 6.20383 24.9375 1.38171 24.9375 1.38171" stroke="#F9F5F1" stroke-width="1.5"/>
<mask id="path-5-inside-2_2138_564" fill="white">
<path d="M24.6875 7.38171C23.9372 7.38171 23.2042 7.60678 22.5831 8.02782C21.9621 8.44886 21.4817 9.04651 21.2039 9.7435C20.9262 10.4405 20.8639 11.2048 21.0251 11.9375C21.1863 12.6703 21.5637 13.3379 22.1083 13.8539C22.653 14.3699 23.3399 14.7107 24.0803 14.8322C24.8207 14.9537 25.5805 14.8503 26.2615 14.5354C26.9425 14.2205 27.5134 13.7085 27.9003 13.0657C28.2873 12.4229 28.4725 11.6788 28.432 10.9295L26.9491 11.0096C26.9735 11.4621 26.8616 11.9115 26.6279 12.2998C26.3942 12.688 26.0494 12.9972 25.6381 13.1874C25.2268 13.3776 24.7679 13.4401 24.3208 13.3667C23.8736 13.2933 23.4587 13.0875 23.1298 12.7758C22.8008 12.4642 22.5729 12.061 22.4755 11.6184C22.3782 11.1758 22.4158 10.7142 22.5835 10.2933C22.7513 9.87232 23.0415 9.51136 23.4165 9.25707C23.7916 9.00278 24.2343 8.86685 24.6875 8.86685V7.38171Z"/>
</mask>
<path d="M24.6875 7.38171C23.9372 7.38171 23.2042 7.60678 22.5831 8.02782C21.9621 8.44886 21.4817 9.04651 21.2039 9.7435C20.9262 10.4405 20.8639 11.2048 21.0251 11.9375C21.1863 12.6703 21.5637 13.3379 22.1083 13.8539C22.653 14.3699 23.3399 14.7107 24.0803 14.8322C24.8207 14.9537 25.5805 14.8503 26.2615 14.5354C26.9425 14.2205 27.5134 13.7085 27.9003 13.0657C28.2873 12.4229 28.4725 11.6788 28.432 10.9295L26.9491 11.0096C26.9735 11.4621 26.8616 11.9115 26.6279 12.2998C26.3942 12.688 26.0494 12.9972 25.6381 13.1874C25.2268 13.3776 24.7679 13.4401 24.3208 13.3667C23.8736 13.2933 23.4587 13.0875 23.1298 12.7758C22.8008 12.4642 22.5729 12.061 22.4755 11.6184C22.3782 11.1758 22.4158 10.7142 22.5835 10.2933C22.7513 9.87232 23.0415 9.51136 23.4165 9.25707C23.7916 9.00278 24.2343 8.86685 24.6875 8.86685V7.38171Z" stroke="#F9F5F1" stroke-width="3" mask="url(#path-5-inside-2_2138_564)"/>
<line x1="23.278" y1="3.21346" x2="26.842" y2="5.02942" stroke="#F9F5F1" stroke-width="1.5"/>
<path d="M40.9375 0.881714H48.9375M44.9375 8.88171C44.9375 6.20383 44.9375 1.38171 44.9375 1.38171" stroke="#F9F5F1" stroke-width="1.5"/>
<mask id="path-8-inside-3_2138_564" fill="white">
<path d="M44.6875 7.38171C45.4378 7.38171 46.1708 7.60678 46.7919 8.02782C47.4129 8.44886 47.8933 9.04651 48.1711 9.7435C48.4488 10.4405 48.5111 11.2048 48.3499 11.9375C48.1887 12.6703 47.8113 13.3379 47.2667 13.8539C46.722 14.3699 46.0351 14.7107 45.2947 14.8322C44.5543 14.9537 43.7945 14.8503 43.1135 14.5354C42.4325 14.2205 41.8616 13.7085 41.4747 13.0657C41.0877 12.4229 40.9025 11.6788 40.943 10.9295L42.3915 11.0078C42.3667 11.4671 42.4803 11.9234 42.7175 12.3175C42.9548 12.7117 43.3048 13.0256 43.7224 13.2187C44.14 13.4118 44.6058 13.4752 45.0598 13.4007C45.5138 13.3262 45.935 13.1173 46.2689 12.8008C46.6029 12.4844 46.8343 12.0751 46.9331 11.6258C47.032 11.1765 46.9938 10.7079 46.8235 10.2805C46.6532 9.85315 46.3586 9.4867 45.9778 9.22854C45.597 8.97038 45.1475 8.83238 44.6875 8.83238V7.38171Z"/>
</mask>
<path d="M44.6875 7.38171C45.4378 7.38171 46.1708 7.60678 46.7919 8.02782C47.4129 8.44886 47.8933 9.04651 48.1711 9.7435C48.4488 10.4405 48.5111 11.2048 48.3499 11.9375C48.1887 12.6703 47.8113 13.3379 47.2667 13.8539C46.722 14.3699 46.0351 14.7107 45.2947 14.8322C44.5543 14.9537 43.7945 14.8503 43.1135 14.5354C42.4325 14.2205 41.8616 13.7085 41.4747 13.0657C41.0877 12.4229 40.9025 11.6788 40.943 10.9295L42.3915 11.0078C42.3667 11.4671 42.4803 11.9234 42.7175 12.3175C42.9548 12.7117 43.3048 13.0256 43.7224 13.2187C44.14 13.4118 44.6058 13.4752 45.0598 13.4007C45.5138 13.3262 45.935 13.1173 46.2689 12.8008C46.6029 12.4844 46.8343 12.0751 46.9331 11.6258C47.032 11.1765 46.9938 10.7079 46.8235 10.2805C46.6532 9.85315 46.3586 9.4867 45.9778 9.22854C45.597 8.97038 45.1475 8.83238 44.6875 8.83238V7.38171Z" stroke="#F9F5F1" stroke-width="3" mask="url(#path-8-inside-3_2138_564)"/>
<line x1="43.278" y1="3.21346" x2="46.842" y2="5.02942" stroke="#F9F5F1" stroke-width="1.5"/>
<path d="M60.9375 0.881714H68.9375M64.9375 8.88171C64.9375 6.20383 64.9375 1.38171 64.9375 1.38171" stroke="#F9F5F1" stroke-width="1.5"/>
<mask id="path-11-inside-4_2138_564" fill="white">
<path d="M64.6875 7.38171C63.9372 7.38171 63.2042 7.60678 62.5831 8.02782C61.9621 8.44886 61.4817 9.04651 61.2039 9.7435C60.9262 10.4405 60.8639 11.2048 61.0251 11.9375C61.1863 12.6703 61.5637 13.3379 62.1083 13.8539C62.653 14.3699 63.3399 14.7107 64.0803 14.8322C64.8207 14.9537 65.5805 14.8503 66.2615 14.5354C66.9425 14.2205 67.5134 13.7085 67.9003 13.0657C68.2873 12.4229 68.4725 11.6788 68.432 10.9295L66.9491 11.0096C66.9735 11.4621 66.8616 11.9115 66.6279 12.2998C66.3942 12.688 66.0494 12.9972 65.6381 13.1874C65.2268 13.3776 64.7679 13.4401 64.3208 13.3667C63.8736 13.2933 63.4587 13.0875 63.1298 12.7758C62.8008 12.4642 62.5729 12.061 62.4755 11.6184C62.3782 11.1758 62.4158 10.7142 62.5835 10.2933C62.7513 9.87232 63.0415 9.51136 63.4165 9.25707C63.7916 9.00278 64.2343 8.86685 64.6875 8.86685V7.38171Z"/>
</mask>
<path d="M64.6875 7.38171C63.9372 7.38171 63.2042 7.60678 62.5831 8.02782C61.9621 8.44886 61.4817 9.04651 61.2039 9.7435C60.9262 10.4405 60.8639 11.2048 61.0251 11.9375C61.1863 12.6703 61.5637 13.3379 62.1083 13.8539C62.653 14.3699 63.3399 14.7107 64.0803 14.8322C64.8207 14.9537 65.5805 14.8503 66.2615 14.5354C66.9425 14.2205 67.5134 13.7085 67.9003 13.0657C68.2873 12.4229 68.4725 11.6788 68.432 10.9295L66.9491 11.0096C66.9735 11.4621 66.8616 11.9115 66.6279 12.2998C66.3942 12.688 66.0494 12.9972 65.6381 13.1874C65.2268 13.3776 64.7679 13.4401 64.3208 13.3667C63.8736 13.2933 63.4587 13.0875 63.1298 12.7758C62.8008 12.4642 62.5729 12.061 62.4755 11.6184C62.3782 11.1758 62.4158 10.7142 62.5835 10.2933C62.7513 9.87232 63.0415 9.51136 63.4165 9.25707C63.7916 9.00278 64.2343 8.86685 64.6875 8.86685V7.38171Z" stroke="#F9F5F1" stroke-width="3" mask="url(#path-11-inside-4_2138_564)"/>
<line x1="63.278" y1="3.21346" x2="66.842" y2="5.02942" stroke="#F9F5F1" stroke-width="1.5"/>
</svg>
