<svg width="1333" height="914" viewBox="0 0 1333 914" fill="none" xmlns="http://www.w3.org/2000/svg">
<path d="M155.452 816.424L153.441 808.916C150.408 797.597 151.995 785.537 157.855 775.389L159.863 771.91C162.533 767.285 166.404 763.468 171.067 760.864C180.17 755.78 191.277 755.859 200.307 761.073L202.555 762.37C207.347 765.137 211.377 769.014 214.32 773.65M289.295 850.25L292.588 840.299C297.262 826.176 297.117 810.901 292.176 796.869L291.733 795.609C290.965 793.43 290.043 791.309 288.974 789.261C280.579 773.189 263.925 763.138 245.793 763.201L244.792 763.204C233.675 763.243 222.983 766.968 214.32 773.65M214.32 773.65C215.08 774.847 215.768 776.095 216.377 777.387L218.923 782.783C222.153 789.629 222.821 797.405 220.808 804.702L220.32 806.472C219.294 810.191 217.39 813.609 214.768 816.44L213.822 817.462C213.269 818.059 212.652 818.595 211.984 819.059L211.836 819.162C208.919 821.189 205.199 821.673 201.861 820.458C197.696 818.943 194.858 815.062 194.676 810.634L194.544 807.412C194.468 805.554 194.722 803.697 195.293 801.928L196.73 797.482C198.49 792.034 201.348 787.005 205.127 782.704L207.279 780.256C209.426 777.813 211.786 775.605 214.32 773.65ZM1247.59 342.359L1239.86 341.547C1228.21 340.322 1217.52 334.518 1210.14 325.411L1207.61 322.289C1204.25 318.139 1202.08 313.157 1201.32 307.872C1199.83 297.551 1203.89 287.21 1211.99 280.648L1214.01 279.014C1218.31 275.532 1223.37 273.159 1228.75 272.073M1327.13 229.528L1319.02 222.888C1307.51 213.463 1293.2 208.125 1278.33 207.709L1277 207.672C1274.69 207.607 1272.38 207.708 1270.08 207.972C1252.07 210.05 1236.72 221.996 1230.28 238.946L1229.92 239.881C1225.97 250.274 1225.62 261.59 1228.75 272.073M1228.75 272.073C1230.14 271.792 1231.55 271.598 1232.98 271.492L1238.93 271.049C1246.48 270.487 1253.98 272.649 1260.07 277.144L1261.55 278.234C1264.65 280.525 1267.16 283.527 1268.86 286.989L1269.48 288.239C1269.84 288.969 1270.12 289.737 1270.31 290.527L1270.35 290.702C1271.2 294.152 1270.32 297.798 1267.99 300.479C1265.08 303.825 1260.44 305.083 1256.24 303.666L1253.19 302.635C1251.42 302.04 1249.78 301.138 1248.33 299.97L1244.7 297.036C1240.24 293.44 1236.57 288.969 1233.91 283.9L1232.4 281.014C1230.89 278.134 1229.67 275.139 1228.75 272.073ZM142.082 260.689L139.551 268.039C135.736 279.119 127.676 288.229 117.144 293.366L113.533 295.127C108.733 297.468 103.39 298.467 98.0685 298.019C87.6782 297.144 78.5143 290.867 73.9434 281.495L72.8054 279.162C70.3798 274.189 69.2072 268.721 69.3595 263.232M50.0361 157.802L41.7416 164.211C29.9693 173.306 21.5479 186.05 17.7976 200.447L17.4611 201.738C16.8786 203.974 16.4566 206.249 16.1982 208.545C14.1705 226.563 22.3569 244.208 37.4238 254.295L38.2555 254.852C47.4937 261.037 58.4406 263.928 69.3595 263.232M69.3595 263.232C69.3988 261.815 69.5264 260.396 69.7435 258.984L70.6505 253.087C71.8011 245.605 75.5952 238.784 81.3446 233.861L82.7395 232.666C85.6697 230.157 89.1594 228.388 92.9153 227.507L94.2715 227.189C95.0642 227.003 95.8747 226.904 96.6888 226.893L96.8685 226.89C100.42 226.841 103.775 228.52 105.863 231.394C108.469 234.979 108.652 239.783 106.326 243.556L104.634 246.301C103.658 247.884 102.409 249.281 100.946 250.429L97.2691 253.311C92.7635 256.843 87.5818 259.415 82.0438 260.866L78.8906 261.693C75.7449 262.518 72.5534 263.028 69.3595 263.232ZM828.506 132.7L835.369 136.349C845.716 141.85 853.453 151.237 856.879 162.443L858.054 166.285C859.615 171.391 859.766 176.825 858.491 182.011C856.001 192.136 848.368 200.206 838.396 203.254L835.914 204.013C830.622 205.631 825.039 205.934 819.641 204.925M712.486 207.517L717.518 216.712C724.66 229.762 735.93 240.074 749.562 246.03L750.786 246.564C752.903 247.489 755.083 248.262 757.311 248.876C774.79 253.698 793.499 248.373 805.818 235.069L806.499 234.335C814.052 226.178 818.62 215.818 819.641 204.925M819.641 204.925C818.247 204.664 816.866 204.316 815.505 203.881L809.822 202.062C802.613 199.756 796.47 194.941 792.506 188.492L791.545 186.928C789.525 183.641 788.323 179.918 788.041 176.07L787.939 174.681C787.879 173.869 787.908 173.053 788.024 172.247L788.05 172.069C788.556 168.553 790.74 165.503 793.905 163.89C797.854 161.877 802.627 162.448 805.99 165.335L808.436 167.436C809.847 168.647 811.032 170.099 811.936 171.724L814.208 175.807C816.992 180.809 818.721 186.33 819.289 192.026L819.612 195.27C819.934 198.506 819.939 201.738 819.641 204.925ZM481.347 824.2L486.257 826.811C493.658 830.746 499.193 837.46 501.643 845.476L502.484 848.224C503.6 851.877 503.708 855.764 502.796 859.474C501.015 866.717 495.555 872.489 488.422 874.67L486.646 875.213C482.861 876.37 478.867 876.587 475.006 875.865M398.355 877.719L401.954 884.297C407.063 893.632 415.125 901.008 424.876 905.269L425.751 905.651C427.266 906.313 428.826 906.865 430.419 907.305C442.922 910.754 456.305 906.944 465.118 897.428L465.605 896.903C471.008 891.068 474.275 883.657 475.006 875.865M475.006 875.865C474.009 875.678 473.021 875.43 472.047 875.118L467.982 873.817C462.825 872.167 458.431 868.723 455.595 864.11L454.908 862.991C453.463 860.64 452.603 857.977 452.401 855.224L452.328 854.231C452.286 853.65 452.306 853.066 452.389 852.49L452.408 852.362C452.77 849.847 454.332 847.665 456.596 846.511C459.421 845.071 462.835 845.48 465.241 847.545L466.991 849.048C468 849.915 468.848 850.953 469.494 852.115L471.119 855.036C473.111 858.614 474.348 862.563 474.754 866.638L474.985 868.959C475.216 871.273 475.219 873.585 475.006 875.865ZM81.0363 711.246L79.5114 715.675C77.2126 722.351 72.3558 727.841 66.0095 730.936L63.8339 731.997C60.9418 733.408 57.7221 734.01 54.5157 733.74C48.2549 733.212 42.7331 729.43 39.9788 723.783L39.2931 722.377C37.8316 719.381 37.125 716.086 37.2168 712.778M25.5733 649.251L20.5754 653.112C13.4818 658.592 8.40741 666.272 6.14767 674.946L5.94487 675.725C5.59392 677.072 5.33963 678.443 5.18394 679.826C3.96209 690.683 8.89493 701.315 17.9736 707.394L18.4748 707.729C24.0413 711.456 30.6375 713.198 37.2168 712.778M37.2168 712.778C37.2405 711.924 37.3173 711.069 37.4482 710.219L37.9947 706.665C38.688 702.157 40.9742 698.047 44.4385 695.081L45.279 694.361C47.0447 692.849 49.1474 691.783 51.4105 691.252L52.2278 691.06C52.7054 690.948 53.1938 690.889 53.6843 690.882L53.7926 690.88C55.9328 690.85 57.9541 691.862 59.2125 693.594C60.7826 695.754 60.8927 698.649 59.4912 700.922L58.4717 702.576C57.8837 703.53 57.1313 704.372 56.2495 705.064L54.034 706.8C51.3191 708.929 48.1968 710.478 44.8598 711.353L42.9599 711.851C41.0644 712.348 39.1413 712.656 37.2168 712.778ZM1070.38 480.308L1065.62 485.068C1058.44 492.244 1048.71 496.275 1038.56 496.275H1035.08C1030.46 496.275 1025.92 495.025 1021.95 492.655C1014.19 488.029 1009.44 479.665 1009.44 470.634V468.386C1009.44 463.594 1010.61 458.893 1012.81 454.678M1037.79 365.275L1028.9 367.115C1016.29 369.725 1004.89 376.448 996.509 386.23L995.757 387.108C994.455 388.627 993.263 390.238 992.19 391.927C983.771 405.182 983.444 422.025 991.343 435.597L991.779 436.347C996.621 444.668 1004.05 451.074 1012.81 454.678M1012.81 454.678C1013.38 453.59 1014.02 452.534 1014.72 451.517L1017.67 447.271C1021.4 441.884 1026.94 438.015 1033.29 436.366L1034.83 435.965C1038.06 435.125 1041.45 435.072 1044.71 435.813L1045.88 436.08C1046.57 436.236 1047.24 436.467 1047.88 436.767L1048.02 436.833C1050.8 438.143 1052.78 440.724 1053.31 443.754C1053.98 447.534 1052.3 451.343 1049.05 453.397L1046.69 454.891C1045.33 455.752 1043.83 456.366 1042.26 456.704L1038.3 457.551C1033.45 458.59 1028.44 458.625 1023.58 457.652L1020.81 457.099C1018.05 456.546 1015.37 455.732 1012.81 454.678ZM901.184 763.127L890.982 761.511C875.602 759.076 861.82 750.63 852.668 738.032L849.53 733.714C845.359 727.973 842.818 721.211 842.177 714.144C840.925 700.345 847.024 686.904 858.234 678.76L861.024 676.732C866.973 672.411 873.858 669.615 881.076 668.547M1014.59 618.932L1004.29 609.557C989.667 596.25 971.046 588.17 951.341 586.584L949.573 586.442C946.513 586.195 943.439 586.168 940.375 586.36C916.328 587.864 895.125 602.648 885.402 624.693L884.865 625.91C878.903 639.426 877.646 654.419 881.076 668.547M881.076 668.547C882.94 668.272 884.826 668.111 886.724 668.07L894.651 667.896C904.706 667.675 914.508 671.066 922.278 677.454L924.163 679.004C928.122 682.259 931.243 686.418 933.262 691.13L933.991 692.831C934.417 693.826 934.734 694.863 934.937 695.926L934.982 696.161C935.866 700.797 934.442 705.575 931.164 708.971C927.073 713.208 920.828 714.556 915.354 712.382L911.372 710.802C909.076 709.89 906.959 708.578 905.119 706.928L900.499 702.781C894.837 697.7 890.276 691.513 887.099 684.6L885.289 680.665C883.484 676.739 882.08 672.68 881.076 668.547ZM1164.98 615.381L1154.92 613.057C1139.74 609.555 1126.58 600.168 1118.33 586.963L1115.5 582.436C1111.74 576.418 1109.68 569.495 1109.53 562.401C1109.25 548.548 1116.27 535.566 1128.02 528.223L1130.95 526.395C1137.18 522.499 1144.24 520.19 1151.52 519.629M1288.17 479.448L1278.54 469.376C1264.89 455.082 1246.88 445.723 1227.33 442.767L1225.58 442.501C1222.54 442.042 1219.48 441.8 1216.41 441.778C1192.31 441.601 1170.13 454.87 1158.89 476.183L1158.27 477.36C1151.38 490.427 1149.08 505.295 1151.52 519.629M1151.52 519.629C1153.4 519.484 1155.29 519.455 1157.19 519.546L1165.11 519.926C1175.15 520.407 1184.69 524.474 1192 531.388L1193.77 533.065C1197.49 536.589 1200.32 540.955 1202 545.797L1202.61 547.545C1202.97 548.566 1203.21 549.624 1203.34 550.698L1203.37 550.935C1203.93 555.622 1202.17 560.289 1198.67 563.448C1194.29 567.389 1187.97 568.298 1182.66 565.748L1178.79 563.893C1176.57 562.824 1174.55 561.368 1172.83 559.593L1168.51 555.134C1163.21 549.671 1159.1 543.18 1156.41 536.063L1154.88 532.011C1153.35 527.968 1152.23 523.821 1151.52 519.629ZM578.3 147.272L573.023 153.517C564.964 163.057 553.458 169.022 541.016 170.111L536.693 170.489C531.072 170.981 525.422 169.951 520.335 167.509C510.317 162.699 503.579 152.961 502.611 141.89L502.385 139.312C501.875 133.484 502.795 127.643 505.035 122.287M526.137 10.8011L515.338 14.0231C500.226 18.5317 487.031 27.9127 477.808 40.704L476.955 41.8863C475.53 43.8639 474.247 45.9411 473.117 48.1018C464.22 65.1241 465.617 85.6977 476.734 101.361L477.406 102.307C484.217 111.903 493.964 118.879 505.035 122.287M505.035 122.287C505.617 120.894 506.289 119.534 507.048 118.215L510.172 112.788C514.199 105.791 520.595 100.466 528.206 97.774L530.031 97.1286C533.901 95.7594 538.043 95.3329 542.112 95.8845L543.593 96.0853C544.446 96.2009 545.284 96.4082 546.093 96.7034L546.318 96.7857C549.843 98.0721 552.52 100.993 553.496 104.616C554.716 109.146 553.069 113.963 549.331 116.798L546.561 118.898C544.998 120.083 543.238 120.984 541.361 121.558L536.572 123.024C530.748 124.806 524.622 125.384 518.567 124.723L514.872 124.319C511.509 123.951 508.217 123.266 505.035 122.287ZM231.642 222.481L236.198 209.964C243.066 191.094 257.148 175.726 275.348 167.239L281.587 164.33C289.88 160.463 299.066 158.91 308.169 159.838C325.946 161.648 341.459 172.676 349.011 188.87L350.891 192.902C354.898 201.496 356.743 210.899 356.318 220.3M386.273 401.517L400.676 390.786C421.119 375.554 435.929 353.97 442.785 329.416L443.4 327.213C444.465 323.399 445.256 319.515 445.768 315.589C449.781 284.778 436.282 254.3 410.769 236.566L409.36 235.587C393.717 224.714 375.047 219.434 356.318 220.3M356.318 220.3C356.209 222.727 355.947 225.153 355.533 227.566L353.803 237.644C351.608 250.427 344.903 262.001 334.905 270.264L332.479 272.269C327.384 276.481 321.352 279.408 314.89 280.805L312.557 281.309C311.193 281.604 309.801 281.75 308.406 281.745L308.098 281.744C302.011 281.722 296.314 278.744 292.822 273.758C288.464 267.537 288.295 259.301 292.393 252.906L295.374 248.254C297.093 245.571 299.274 243.214 301.816 241.292L308.202 236.463C316.028 230.546 324.983 226.295 334.515 223.973L339.942 222.651C345.356 221.332 350.84 220.553 356.318 220.3ZM428.622 689.193L426.346 697.072C422.885 709.047 414.841 719.168 403.974 725.221L400.217 727.313C395.291 730.057 389.722 731.42 384.096 731.257C373.052 730.938 363.006 724.802 357.66 715.11L356.382 712.794C353.559 707.677 352.032 701.965 351.902 696.156M325.961 585.738L317.479 593.047C305.547 603.329 297.335 617.28 294.127 632.721L293.833 634.133C293.336 636.524 293.011 638.948 292.858 641.385C291.659 660.558 301.248 678.77 317.696 688.558L318.658 689.13C328.738 695.128 340.436 697.54 351.902 696.156M351.902 696.156C351.869 694.65 351.929 693.137 352.085 691.626L352.731 685.374C353.558 677.362 357.215 669.907 363.04 664.356L364.443 663.019C367.408 660.194 371.001 658.119 374.924 656.968L376.348 656.55C377.172 656.308 378.02 656.156 378.877 656.097L379.097 656.081C382.831 655.822 386.454 657.402 388.809 660.317C391.751 663.958 392.201 669.029 389.946 673.146L388.287 676.175C387.343 677.898 386.103 679.442 384.625 680.734L380.874 684.012C376.299 688.01 370.962 691.031 365.188 692.89L361.754 693.996C358.52 695.037 355.221 695.756 351.902 696.156ZM617.013 770.775L618.672 762.244C621.172 749.382 628.679 738.04 639.542 730.713L643.265 728.201C648.216 724.862 653.977 722.924 659.939 722.593C671.58 721.945 682.703 727.469 689.223 737.134L690.846 739.541C694.306 744.67 696.455 750.542 697.141 756.644M734.943 870.375L743.13 861.989C754.75 850.086 762.091 834.663 764.003 818.14L764.175 816.657C764.472 814.091 764.585 811.506 764.514 808.924C763.956 788.658 752.145 770.393 733.892 761.569L732.885 761.082C721.693 755.671 709.122 754.174 697.141 756.644M697.141 756.644C697.318 758.219 697.397 759.809 697.376 761.407L697.29 768.078C697.18 776.541 694.04 784.684 688.44 791.03L687.082 792.57C684.228 795.804 680.639 798.306 676.617 799.866L675.165 800.429C674.316 800.758 673.434 800.994 672.535 801.134L672.336 801.164C668.411 801.772 664.435 800.434 661.676 797.577C658.232 794.013 657.283 788.722 659.271 784.182L660.717 780.88C661.551 778.975 662.716 777.234 664.158 775.735L667.781 771.972C672.22 767.359 677.558 763.706 683.464 761.237L686.826 759.831C690.181 758.428 693.636 757.366 697.141 756.644ZM1118.2 817.222L1114.17 807.714C1108.08 793.38 1107.94 777.217 1113.77 762.779L1115.77 757.83C1118.43 751.251 1122.82 745.513 1128.47 741.224C1139.51 732.85 1154.14 730.9 1166.99 736.09L1170.19 737.382C1177 740.137 1183.02 744.494 1187.75 750.05M1300.58 836.981L1303.07 823.277C1306.61 803.828 1303.59 783.755 1294.5 766.204L1293.68 764.629C1292.27 761.903 1290.66 759.282 1288.88 756.785C1274.86 737.189 1251.08 727.043 1227.24 730.479L1225.92 730.668C1211.3 732.775 1197.92 739.654 1187.75 750.05M1187.75 750.05C1188.98 751.484 1190.11 752.999 1191.15 754.586L1195.5 761.216C1201.02 769.627 1203.33 779.737 1202.03 789.71L1201.72 792.13C1201.06 797.214 1199.18 802.064 1196.26 806.273L1195.2 807.793C1194.58 808.681 1193.87 809.5 1193.08 810.235L1192.9 810.397C1189.44 813.604 1184.63 814.929 1180.02 813.948C1174.25 812.724 1169.8 808.142 1168.74 802.348L1167.97 798.134C1167.53 795.703 1167.52 793.212 1167.95 790.778L1169.01 784.663C1170.32 777.168 1173.15 770.022 1177.33 763.664L1179.71 760.044C1182.08 756.433 1184.78 753.091 1187.75 750.05ZM157.894 596.308L146.016 596.967C133.298 597.672 120.923 592.694 112.236 583.378L110.521 581.539C105.526 576.183 102.332 569.399 101.386 562.137C99.9218 550.904 103.969 539.656 112.253 531.93L118.334 526.26C123.511 521.433 129.615 517.744 136.251 515.404M258.847 444.982L256.36 443.363C237.688 431.206 215.291 426.113 193.198 428.999L186.631 430.77C165.272 436.529 147.94 452.13 139.972 472.767L137.294 479.702C132.842 491.235 132.545 503.837 136.251 515.404M136.251 515.404C138.065 514.764 139.919 514.226 141.805 513.792L151.192 511.632C159.044 509.826 167.288 511.038 174.287 515.028L176.623 516.359C180.417 518.521 183.513 521.724 185.546 525.588L186.103 526.646C186.615 527.618 187.004 528.65 187.262 529.718C188.225 533.71 187.288 537.923 184.725 541.131L183.912 542.149C180.283 546.69 174.471 548.897 168.742 547.909L166.454 547.514C163.846 547.065 161.354 546.099 159.125 544.674L155.655 542.456C150.117 538.915 145.529 534.074 142.291 528.354L140.656 525.466C138.831 522.242 137.362 518.87 136.251 515.404ZM1156.73 165.258L1152.79 176.706C1146.85 193.964 1134.29 208.155 1117.89 216.156L1112.26 218.899C1104.79 222.545 1096.46 224.102 1088.17 223.403C1071.99 222.04 1057.72 212.264 1050.6 197.666L1048.82 194.032C1045.05 186.285 1043.22 177.769 1043.46 169.218M1013.36 5L1000.44 14.9816C982.101 29.1484 968.984 48.9996 963.143 71.4231L962.618 73.4355C961.711 76.918 961.054 80.4608 960.651 84.037C957.493 112.102 970.244 139.587 993.713 155.299L995.008 156.166C1009.4 165.8 1026.45 170.302 1043.46 169.218M1043.46 169.218C1043.52 167.011 1043.72 164.801 1044.05 162.602L1045.47 153.416C1047.26 141.763 1053.17 131.138 1062.12 123.47L1064.3 121.609C1068.86 117.701 1074.3 114.945 1080.15 113.573L1082.26 113.078C1083.49 112.789 1084.76 112.634 1086.02 112.616L1086.3 112.612C1091.84 112.535 1097.06 115.151 1100.31 119.627C1104.37 125.212 1104.66 132.694 1101.04 138.571L1098.4 142.846C1096.88 145.312 1094.93 147.489 1092.66 149.276L1086.93 153.766C1079.91 159.267 1071.84 163.273 1063.21 165.534L1058.3 166.822C1053.4 168.106 1048.43 168.901 1043.46 169.218ZM1033.44 859.351L1034.61 864.406C1036.36 872.048 1035.02 880.077 1030.86 886.729L1029.43 889.016C1027.53 892.041 1024.86 894.5 1021.69 896.132C1015.48 899.325 1008.04 899.017 1002.12 895.32L1000.67 894.413C997.532 892.454 994.932 889.772 993.075 886.608M944.79 833.692L942.346 840.284C938.888 849.609 938.621 859.816 941.588 869.307L941.856 870.164C942.316 871.637 942.881 873.074 943.546 874.466C948.772 885.4 959.669 892.501 971.79 892.872L972.473 892.893C979.903 893.121 987.134 890.875 993.075 886.608M993.075 886.608C992.595 885.789 992.165 884.939 991.788 884.06L990.219 880.403C988.221 875.747 987.959 870.53 989.48 865.696L989.848 864.526C990.623 862.064 991.977 859.823 993.796 857.99L994.455 857.328C994.838 856.941 995.262 856.598 995.72 856.303L995.827 856.234C997.822 854.947 1000.32 854.71 1002.52 855.597C1005.27 856.705 1007.07 859.363 1007.09 862.325L1007.1 864.489C1007.11 865.73 1006.89 866.963 1006.47 868.131L1005.4 871.075C1004.09 874.676 1002.06 877.972 999.435 880.76L997.914 882.373C996.428 883.949 994.807 885.364 993.075 886.608Z" stroke="#F992C9" stroke-width="10" stroke-linecap="round"/>
</svg>
