<svg width="1333" height="1126" viewBox="0 0 1333 1126" fill="none" xmlns="http://www.w3.org/2000/svg">
<path d="M155.967 1028.12L153.955 1020.61C150.922 1009.29 152.51 997.229 158.369 987.08L160.378 983.601C163.048 978.977 166.919 975.16 171.581 972.556C180.685 967.472 191.792 967.551 200.822 972.765L203.07 974.062C207.862 976.829 211.892 980.706 214.835 985.342M289.81 1061.94L293.103 1051.99C297.777 1037.87 297.632 1022.59 292.691 1008.56L292.247 1007.3C291.48 1005.12 290.558 1003 289.488 1000.95C281.094 984.881 264.44 974.83 246.308 974.893L245.307 974.896C234.19 974.935 223.498 978.66 214.835 985.342M214.835 985.342C215.595 986.539 216.282 987.787 216.892 989.079L219.438 994.475C222.667 1001.32 223.336 1009.1 221.323 1016.39L220.834 1018.16C219.808 1021.88 217.904 1025.3 215.283 1028.13L214.337 1029.15C213.783 1029.75 213.167 1030.29 212.498 1030.75L212.351 1030.85C209.434 1032.88 205.714 1033.36 202.375 1032.15C198.21 1030.63 195.372 1026.75 195.191 1022.33L195.059 1019.1C194.983 1017.25 195.236 1015.39 195.808 1013.62L197.244 1009.17C199.005 1003.73 201.862 998.697 205.642 994.396L207.794 991.948C209.94 989.505 212.301 987.297 214.835 985.342ZM1248.1 554.051L1240.37 553.239C1228.72 552.014 1218.03 546.21 1210.66 537.103L1208.13 533.981C1204.77 529.831 1202.59 524.849 1201.83 519.563C1200.35 509.243 1204.4 498.902 1212.5 492.34L1214.52 490.706C1218.82 487.224 1223.89 484.851 1229.27 483.765M1327.65 441.22L1319.54 434.58C1308.03 425.155 1293.72 419.817 1278.85 419.401L1277.51 419.364C1275.2 419.299 1272.89 419.399 1270.6 419.664C1252.58 421.742 1237.23 433.688 1230.79 450.637L1230.44 451.573C1226.49 461.966 1226.13 473.282 1229.27 483.765M1229.27 483.765C1230.66 483.484 1232.07 483.29 1233.49 483.184L1239.44 482.741C1246.99 482.179 1254.49 484.341 1260.58 488.836L1262.06 489.926C1265.16 492.217 1267.67 495.219 1269.38 498.681L1269.99 499.931C1270.35 500.661 1270.63 501.428 1270.82 502.219L1270.87 502.394C1271.71 505.843 1270.83 509.49 1268.5 512.171C1265.59 515.517 1260.96 516.775 1256.76 515.358L1253.7 514.326C1251.94 513.732 1250.3 512.829 1248.85 511.662L1245.21 508.727C1240.76 505.132 1237.09 500.661 1234.43 495.592L1232.91 492.706C1231.4 489.826 1230.19 486.831 1229.27 483.765ZM142.596 472.381L140.066 479.731C136.251 490.811 128.19 499.921 117.658 505.058L114.048 506.819C109.248 509.16 103.904 510.159 98.5831 509.711C88.1928 508.836 79.029 502.559 74.458 493.187L73.32 490.854C70.8944 485.881 69.7219 480.413 69.8741 474.924M50.5508 369.494L42.2563 375.903C30.4839 384.998 22.0625 397.742 18.3123 412.138L17.9757 413.43C17.3933 415.666 16.9713 417.941 16.7129 420.237C14.6851 438.255 22.8716 455.9 37.9385 465.987L38.7702 466.544C48.0083 472.729 58.9552 475.62 69.8741 474.924M69.8741 474.924C69.9134 473.507 70.041 472.088 70.2582 470.676L71.1652 464.779C72.3157 457.297 76.1099 450.476 81.8592 445.553L83.2542 444.358C86.1844 441.849 89.674 440.08 93.4299 439.199L94.7862 438.881C95.5789 438.695 96.3893 438.596 97.2034 438.585L97.3831 438.582C100.935 438.533 104.29 440.212 106.378 443.086C108.984 446.671 109.166 451.475 106.84 455.248L105.149 457.993C104.173 459.576 102.924 460.973 101.461 462.121L97.7838 465.003C93.2781 468.535 88.0964 471.107 82.5584 472.558L79.4053 473.385C76.2596 474.21 73.068 474.72 69.8741 474.924ZM829.021 344.392L835.884 348.041C846.23 353.542 853.968 362.929 857.394 374.135L858.568 377.976C860.129 383.083 860.281 388.517 859.005 393.703C856.515 403.828 848.883 411.898 838.911 414.946L836.429 415.705C831.137 417.323 825.553 417.626 820.155 416.617M713.001 419.209L718.033 428.404C725.174 441.454 736.445 451.766 750.077 457.722L751.3 458.256C753.417 459.181 755.598 459.954 757.825 460.568C775.304 465.39 794.013 460.064 806.333 446.761L807.013 446.027C814.567 437.87 819.135 427.51 820.155 416.617M820.155 416.617C818.762 416.356 817.381 416.008 816.02 415.573L810.337 413.754C803.128 411.448 796.984 406.633 793.021 400.184L792.059 398.62C790.039 395.333 788.838 391.61 788.556 387.762L788.454 386.373C788.394 385.561 788.423 384.745 788.539 383.939L788.564 383.761C789.071 380.245 791.255 377.195 794.42 375.582C798.369 373.569 803.142 374.14 806.505 377.027L808.951 379.128C810.362 380.339 811.547 381.791 812.451 383.416L814.723 387.499C817.507 392.501 819.236 398.021 819.803 403.718L820.127 406.962C820.449 410.198 820.454 413.43 820.155 416.617ZM481.862 1035.89L486.771 1038.5C494.172 1042.44 499.707 1049.15 502.158 1057.17L502.998 1059.92C504.115 1063.57 504.223 1067.46 503.311 1071.17C501.53 1078.41 496.07 1084.18 488.937 1086.36L487.161 1086.9C483.376 1088.06 479.382 1088.28 475.52 1087.56M398.869 1089.41L402.469 1095.99C407.577 1105.32 415.639 1112.7 425.391 1116.96L426.266 1117.34C427.781 1118 429.34 1118.56 430.934 1119C443.437 1122.45 456.82 1118.64 465.633 1109.12L466.119 1108.59C471.523 1102.76 474.79 1095.35 475.52 1087.56M475.52 1087.56C474.523 1087.37 473.535 1087.12 472.562 1086.81L468.497 1085.51C463.34 1083.86 458.945 1080.42 456.11 1075.8L455.422 1074.68C453.977 1072.33 453.118 1069.67 452.916 1066.92L452.843 1065.92C452.8 1065.34 452.821 1064.76 452.904 1064.18L452.922 1064.05C453.285 1061.54 454.847 1059.36 457.111 1058.2C459.935 1056.76 463.35 1057.17 465.756 1059.24L467.505 1060.74C468.515 1061.61 469.362 1062.64 470.009 1063.81L471.634 1066.73C473.625 1070.31 474.862 1074.26 475.268 1078.33L475.5 1080.65C475.73 1082.97 475.734 1085.28 475.52 1087.56ZM168.659 5.04248L175.403 8.7808C185.571 14.4165 193.083 23.8603 196.287 35.0347L197.385 38.8654C198.845 43.9577 198.901 49.3501 197.546 54.4714C194.901 64.4714 187.191 72.3428 177.248 75.1939L174.773 75.9038C169.496 77.4168 163.952 77.6204 158.616 76.526M52.2885 77.2424L57.1202 86.4496C63.9778 99.5173 74.9779 109.94 88.396 116.084L89.6002 116.635C91.6841 117.589 93.8335 118.393 96.0319 119.041C113.285 124.126 131.934 119.168 144.384 106.186L145.072 105.469C152.705 97.5096 157.415 87.3131 158.616 76.526M158.616 76.526C157.238 76.2435 155.874 75.8745 154.532 75.4191L148.927 73.5171C141.816 71.1043 135.806 66.2227 131.987 59.7578L131.06 58.1893C129.113 54.8944 127.986 51.1804 127.773 47.3594L127.696 45.9796C127.651 45.1732 127.693 44.3643 127.822 43.567L127.851 43.391C128.414 39.9124 130.633 36.9246 133.8 35.3794C137.752 33.4513 142.476 34.1004 145.762 37.0227L148.152 39.1484C149.53 40.3744 150.68 41.835 151.549 43.4624L153.732 47.5509C156.406 52.5611 158.026 58.0663 158.49 63.7267L158.754 66.9496C159.018 70.1648 158.967 73.3707 158.616 76.526ZM81.5509 922.938L80.0261 927.367C77.7273 934.043 72.8705 939.533 66.5242 942.628L64.3486 943.689C61.4565 945.1 58.2367 945.702 55.0303 945.432C48.7695 944.904 43.2478 941.122 40.4935 935.475L39.8078 934.069C38.3462 931.072 37.6397 927.778 37.7314 924.47M26.088 860.943L21.09 864.804C13.9965 870.284 8.92206 877.964 6.66232 886.638L6.45951 887.417C6.10857 888.764 5.85428 890.134 5.69859 891.518C4.47674 902.375 9.40958 913.007 18.4883 919.086L18.9894 919.421C24.556 923.148 31.1521 924.89 37.7314 924.47M37.7314 924.47C37.7551 923.616 37.832 922.761 37.9628 921.911L38.5094 918.357C39.2026 913.849 41.4888 909.739 44.9532 906.772L45.7937 906.053C47.5593 904.541 49.662 903.475 51.9252 902.944L52.7424 902.752C53.2201 902.64 53.7084 902.58 54.1989 902.574L54.3072 902.572C56.4475 902.542 58.4688 903.554 59.7272 905.286C61.2973 907.446 61.4074 910.341 60.0058 912.614L58.9863 914.268C58.3983 915.222 57.6459 916.064 56.7641 916.755L54.5486 918.492C51.8337 920.621 48.7114 922.17 45.3745 923.045L43.4745 923.543C41.579 924.04 39.6559 924.347 37.7314 924.47ZM1070.9 692L1066.14 696.76C1058.96 703.936 1049.23 707.967 1039.08 707.967H1035.6C1030.97 707.967 1026.44 706.717 1022.46 704.347C1014.71 699.721 1009.96 691.357 1009.96 682.326V680.078C1009.96 675.286 1011.12 670.585 1013.32 666.37M1038.31 576.967L1029.42 578.807C1016.8 581.417 1005.41 588.14 997.024 597.922L996.271 598.8C994.969 600.319 993.777 601.93 992.705 603.619C984.286 616.874 983.959 633.717 991.857 647.289L992.293 648.038C997.136 656.36 1004.56 662.766 1013.32 666.37M1013.32 666.37C1013.89 665.282 1014.53 664.226 1015.23 663.209L1018.18 658.963C1021.92 653.576 1027.46 649.707 1033.8 648.058L1035.34 647.657C1038.58 646.817 1041.96 646.764 1045.22 647.505L1046.4 647.772C1047.09 647.928 1047.75 648.159 1048.39 648.459L1048.53 648.525C1051.32 649.835 1053.29 652.416 1053.83 655.446C1054.49 659.226 1052.81 663.035 1049.57 665.089L1047.21 666.583C1045.85 667.444 1044.35 668.058 1042.77 668.396L1038.81 669.243C1033.97 670.282 1028.96 670.317 1024.09 669.344L1021.33 668.79C1018.56 668.238 1015.89 667.424 1013.32 666.37ZM901.698 974.819L891.497 973.203C876.117 970.768 862.335 962.322 853.182 949.724L850.045 945.406C845.874 939.665 843.333 932.903 842.692 925.836C841.44 912.037 847.539 898.596 858.748 890.452L861.539 888.424C867.488 884.103 874.372 881.306 881.591 880.239M1015.1 830.624L1004.8 821.248C990.182 807.941 971.561 799.862 951.856 798.276L950.088 798.134C947.028 797.887 943.954 797.86 940.89 798.052C916.843 799.556 895.64 814.34 885.916 836.385L885.38 837.602C879.417 851.118 878.161 866.111 881.591 880.239M881.591 880.239C883.455 879.963 885.34 879.803 887.238 879.761L895.165 879.588C905.221 879.367 915.023 882.758 922.792 889.146L924.677 890.696C928.637 893.951 931.758 898.11 933.777 902.822L934.506 904.523C934.932 905.517 935.249 906.555 935.452 907.618L935.497 907.852C936.381 912.489 934.957 917.267 931.678 920.663C927.588 924.9 921.343 926.248 915.869 924.074L911.887 922.494C909.59 921.582 907.473 920.27 905.634 918.62L901.014 914.473C895.352 909.392 890.791 903.205 887.613 896.292L885.804 892.357C883.999 888.43 882.594 884.372 881.591 880.239ZM1165.5 827.073L1155.43 824.749C1140.26 821.247 1127.1 811.86 1118.85 798.655L1116.02 794.128C1112.26 788.11 1110.2 781.187 1110.05 774.093C1109.76 760.24 1116.78 747.258 1128.54 739.915L1131.46 738.087C1137.7 734.191 1144.76 731.882 1152.03 731.32M1288.68 691.14L1279.06 681.068C1265.4 666.774 1247.39 657.415 1227.85 654.458L1226.09 654.193C1223.06 653.734 1219.99 653.492 1216.92 653.47C1192.83 653.293 1170.65 666.562 1159.41 687.875L1158.79 689.051C1151.9 702.119 1149.6 716.987 1152.03 731.32M1152.03 731.32C1153.91 731.176 1155.81 731.147 1157.7 731.238L1165.62 731.618C1175.67 732.099 1185.21 736.166 1192.51 743.08L1194.29 744.757C1198.01 748.281 1200.83 752.647 1202.52 757.488L1203.13 759.237C1203.48 760.258 1203.73 761.316 1203.85 762.39L1203.88 762.627C1204.44 767.314 1202.69 771.981 1199.18 775.14C1194.8 779.081 1188.48 779.99 1183.17 777.44L1179.31 775.585C1177.08 774.516 1175.06 773.06 1173.34 771.285L1169.02 766.826C1163.73 761.363 1159.61 754.872 1156.92 747.755L1155.39 743.703C1153.87 739.66 1152.75 735.513 1152.03 731.32ZM578.815 358.964L573.538 365.209C565.478 374.749 553.972 380.714 541.531 381.802L537.208 382.181C531.587 382.672 525.937 381.643 520.85 379.201C510.831 374.391 504.094 364.653 503.125 353.582L502.9 351.004C502.39 345.176 503.31 339.335 505.549 333.979M526.651 222.493L515.852 225.715C500.741 230.224 487.546 239.605 478.323 252.396L477.47 253.578C476.044 255.556 474.762 257.633 473.632 259.794C464.734 276.816 466.132 297.39 477.249 313.053L477.921 313.999C484.732 323.595 494.479 330.571 505.549 333.979M505.549 333.979C506.132 332.586 506.803 331.226 507.562 329.907L510.686 324.48C514.713 317.483 521.11 312.158 528.721 309.466L530.545 308.821C534.416 307.451 538.558 307.025 542.626 307.576L544.107 307.777C544.96 307.893 545.799 308.1 546.607 308.395L546.833 308.478C550.357 309.764 553.035 312.685 554.011 316.308C555.231 320.838 553.584 325.655 549.845 328.49L547.076 330.59C545.513 331.775 543.752 332.676 541.876 333.25L537.086 334.716C531.262 336.498 525.137 337.076 519.082 336.414L515.387 336.011C512.024 335.643 508.732 334.958 505.549 333.979ZM232.157 434.173L236.712 421.656C243.58 402.786 257.663 387.418 275.862 378.931L282.101 376.022C290.395 372.155 299.58 370.602 308.684 371.53C326.46 373.34 341.974 384.368 349.525 400.562L351.405 404.594C355.413 413.188 357.258 422.591 356.833 431.992M386.788 613.209L401.191 602.478C421.634 587.246 436.444 565.662 443.3 541.108L443.915 538.905C444.98 535.091 445.771 531.207 446.282 527.281C450.295 496.47 436.797 465.992 411.283 448.258L409.875 447.279C394.231 436.406 375.562 431.126 356.833 431.992M356.833 431.992C356.723 434.419 356.462 436.845 356.048 439.258L354.317 449.336C352.122 462.119 345.418 473.693 335.42 481.956L332.994 483.961C327.898 488.173 321.866 491.1 315.405 492.496L313.071 493.001C311.708 493.295 310.316 493.442 308.921 493.437L308.613 493.436C302.526 493.414 296.828 490.436 293.336 485.45C288.979 479.229 288.809 470.993 292.908 464.598L295.889 459.946C297.608 457.263 299.789 454.906 302.331 452.984L308.717 448.155C316.542 442.238 325.497 437.987 335.029 435.665L340.457 434.343C345.871 433.024 351.354 432.245 356.833 431.992ZM429.137 900.885L426.86 908.764C423.4 920.739 415.356 930.86 404.489 936.913L400.732 939.005C395.806 941.749 390.237 943.112 384.611 942.949C373.567 942.63 363.521 936.494 358.174 926.802L356.897 924.486C354.074 919.369 352.547 913.656 352.417 907.848M326.476 797.43L317.994 804.739C306.061 815.021 297.849 828.972 294.641 844.413L294.348 845.824C293.851 848.216 293.525 850.64 293.373 853.077C292.173 872.25 301.763 890.462 318.211 900.25L319.172 900.822C329.252 906.82 340.951 909.232 352.417 907.848M352.417 907.848C352.383 906.342 352.443 904.829 352.599 903.318L353.245 897.065C354.073 889.054 357.73 881.599 363.555 876.048L364.957 874.711C367.923 871.886 371.516 869.811 375.439 868.66L376.862 868.242C377.687 868 378.535 867.848 379.391 867.789L379.611 867.773C383.346 867.514 386.969 869.094 389.324 872.009C392.266 875.65 392.715 880.721 390.461 884.838L388.802 887.866C387.858 889.59 386.618 891.134 385.14 892.426L381.389 895.704C376.814 899.702 371.476 902.723 365.703 904.582L362.269 905.688C359.034 906.729 355.735 907.447 352.417 907.848ZM617.528 982.467L619.186 973.936C621.686 961.074 629.194 949.732 640.056 942.405L643.78 939.893C648.73 936.554 654.491 934.616 660.453 934.284C672.094 933.637 683.218 939.16 689.737 948.826L691.361 951.233C694.82 956.362 696.97 962.234 697.655 968.336M735.458 1082.07L743.645 1073.68C755.264 1061.78 762.606 1046.36 764.518 1029.83L764.69 1028.35C764.987 1025.78 765.1 1023.2 765.029 1020.62C764.47 1000.35 752.66 982.085 734.407 973.261L733.399 972.774C722.208 967.363 709.637 965.866 697.655 968.336M697.655 968.336C697.832 969.911 697.912 971.501 697.891 973.099L697.804 979.77C697.695 988.233 694.555 996.376 688.955 1002.72L687.596 1004.26C684.742 1007.5 681.154 1010 677.132 1011.56L675.68 1012.12C674.831 1012.45 673.949 1012.69 673.049 1012.83L672.851 1012.86C668.926 1013.46 664.95 1012.13 662.19 1009.27C658.747 1005.7 657.797 1000.41 659.785 995.874L661.232 992.572C662.066 990.667 663.231 988.925 664.673 987.427L668.296 983.664C672.735 979.051 678.072 975.398 683.978 972.928L687.341 971.523C690.696 970.12 694.15 969.058 697.655 968.336ZM1118.72 1028.91L1114.68 1019.41C1108.6 1005.07 1108.45 988.909 1114.29 974.471L1116.29 969.522C1118.95 962.943 1123.33 957.205 1128.99 952.916C1140.03 944.542 1154.66 942.592 1167.5 947.782L1170.7 949.074C1177.52 951.829 1183.54 956.186 1188.27 961.742M1301.09 1048.67L1303.59 1034.97C1307.13 1015.52 1304.11 995.447 1295.01 977.896L1294.2 976.321C1292.78 973.595 1291.18 970.974 1289.39 968.477C1275.37 948.881 1251.6 938.735 1227.75 942.171L1226.44 942.36C1211.81 944.467 1198.43 951.346 1188.27 961.742M1188.27 961.742C1189.49 963.176 1190.63 964.691 1191.67 966.278L1196.01 972.908C1201.53 981.319 1203.85 991.429 1202.55 1001.4L1202.23 1003.82C1201.57 1008.91 1199.7 1013.76 1196.77 1017.96L1195.72 1019.48C1195.1 1020.37 1194.39 1021.19 1193.59 1021.93L1193.42 1022.09C1189.95 1025.3 1185.15 1026.62 1180.53 1025.64C1174.77 1024.42 1170.32 1019.83 1169.26 1014.04L1168.49 1009.83C1168.05 1007.39 1168.04 1004.9 1168.46 1002.47L1169.53 996.355C1170.84 988.86 1173.67 981.714 1177.85 975.356L1180.23 971.736C1182.6 968.125 1185.3 964.783 1188.27 961.742ZM158.409 808L146.53 808.659C133.812 809.364 121.437 804.386 112.75 795.07L111.036 793.231C106.041 787.875 102.847 781.091 101.9 773.829C100.436 762.596 104.483 751.347 112.768 743.622L118.849 737.952C124.025 733.125 130.129 729.436 136.766 727.096M259.361 656.674L256.875 655.055C238.203 642.898 215.805 637.805 193.712 640.691L187.146 642.461C165.787 648.221 148.455 663.822 140.487 684.459L137.809 691.394C133.356 702.927 133.06 715.529 136.766 727.096M136.766 727.096C138.58 726.456 140.434 725.918 142.319 725.484L151.707 723.324C159.559 721.518 167.802 722.73 174.802 726.72L177.138 728.051C180.931 730.213 184.027 733.416 186.061 737.28L186.618 738.338C187.129 739.31 187.519 740.342 187.776 741.41C188.739 745.402 187.803 749.615 185.239 752.823L184.426 753.841C180.798 758.382 174.985 760.589 169.257 759.601L166.968 759.206C164.361 758.757 161.869 757.791 159.64 756.366L156.17 754.147C150.632 750.607 146.044 745.766 142.806 740.046L141.171 737.158C139.346 733.934 137.876 730.562 136.766 727.096ZM1157.24 376.95L1153.3 388.398C1147.36 405.656 1134.8 419.846 1118.4 427.848L1112.78 430.591C1105.3 434.237 1096.98 435.794 1088.69 435.095C1072.5 433.732 1058.23 423.955 1051.11 409.358L1049.34 405.724C1045.56 397.977 1043.73 389.46 1043.97 380.91M1013.87 216.692L1000.95 226.674C982.616 240.84 969.499 260.692 963.657 283.115L963.133 285.127C962.226 288.61 961.568 292.153 961.166 295.729C958.008 323.794 970.759 351.279 994.227 366.991L995.523 367.858C1009.91 377.492 1026.96 381.994 1043.97 380.91M1043.97 380.91C1044.03 378.703 1044.23 376.493 1044.57 374.294L1045.98 365.108C1047.77 353.455 1053.68 342.83 1062.64 335.162L1064.81 333.301C1069.38 329.393 1074.81 326.637 1080.66 325.265L1082.77 324.77C1084.01 324.48 1085.27 324.326 1086.54 324.308L1086.82 324.304C1092.35 324.227 1097.58 326.843 1100.83 331.319C1104.89 336.904 1105.17 344.386 1101.55 350.263L1098.91 354.538C1097.39 357.004 1095.45 359.181 1093.17 360.968L1087.44 365.458C1080.43 370.959 1072.35 374.965 1063.73 377.226L1058.82 378.513C1053.92 379.798 1048.95 380.593 1043.97 380.91ZM1033.96 1071.04L1035.12 1076.1C1036.88 1083.74 1035.53 1091.77 1031.37 1098.42L1029.94 1100.71C1028.05 1103.73 1025.37 1106.19 1022.2 1107.82C1015.99 1111.02 1008.56 1110.71 1002.64 1107.01L1001.18 1106.1C998.047 1104.15 995.446 1101.46 993.59 1098.3M945.305 1045.38L942.86 1051.98C939.402 1061.3 939.136 1071.51 942.102 1081L942.37 1081.86C942.83 1083.33 943.395 1084.77 944.061 1086.16C949.287 1097.09 960.184 1104.19 972.304 1104.56L972.988 1104.58C980.418 1104.81 987.648 1102.57 993.59 1098.3M993.59 1098.3C993.11 1097.48 992.68 1096.63 992.303 1095.75L990.734 1092.1C988.736 1087.44 988.474 1082.22 989.995 1077.39L990.363 1076.22C991.137 1073.76 992.491 1071.51 994.311 1069.68L994.969 1069.02C995.353 1068.63 995.777 1068.29 996.234 1067.99L996.341 1067.93C998.336 1066.64 1000.83 1066.4 1003.03 1067.29C1005.78 1068.4 1007.59 1071.06 1007.6 1074.02L1007.61 1076.18C1007.62 1077.42 1007.41 1078.66 1006.98 1079.82L1005.91 1082.77C1004.61 1086.37 1002.58 1089.66 999.95 1092.45L998.429 1094.07C996.943 1095.64 995.321 1097.06 993.59 1098.3Z" stroke="#F992C9" stroke-width="10" stroke-linecap="round"/>
</svg>
