<svg width="230" height="235" viewBox="0 0 230 235" fill="none" xmlns="http://www.w3.org/2000/svg">
<path d="M115 117.398C115 117.398 95.4636 92.8945 65.3311 92.8945C35.1987 92.8945 15 117.398 15 117.398" stroke="#2078CA" stroke-width="30" stroke-linecap="round"/>
<path d="M215 117.107C215 117.107 195.464 141.61 165.331 141.61C135.199 141.61 115 117.107 115 117.107" stroke="#2078CA" stroke-width="30" stroke-linecap="round"/>
<path d="M114.737 117.105C114.737 117.105 89.7368 137.038 89.7368 167.781C89.7368 198.524 114.737 219.132 114.737 219.132" stroke="#2078CA" stroke-width="30" stroke-linecap="round"/>
<path d="M115 15C115 15 140 34.9324 140 65.6756C140 96.4188 115 117.027 115 117.027" stroke="#2078CA" stroke-width="30" stroke-linecap="round"/>
<path d="M115 116.618C115 116.618 146.772 120.202 168.511 98.4628C190.25 76.7241 187.144 44.4744 187.144 44.4744" stroke="#2078CA" stroke-width="30" stroke-linecap="round"/>
<path d="M43.204 189.032C43.204 189.032 39.6207 157.26 61.3595 135.521C83.0982 113.783 115.348 116.888 115.348 116.888" stroke="#2078CA" stroke-width="30" stroke-linecap="round"/>
<path d="M114.783 117.106C114.783 117.106 111.2 148.878 132.939 170.616C154.677 192.355 186.927 189.249 186.927 189.249" stroke="#2078CA" stroke-width="30" stroke-linecap="round"/>
<path d="M42.3687 45.3095C42.3687 45.3095 74.1407 41.7262 95.8795 63.4649C117.618 85.2036 114.513 117.453 114.513 117.453" stroke="#2078CA" stroke-width="30" stroke-linecap="round"/>
<path d="M115 117.398C115 117.398 95.4636 92.8945 65.3311 92.8945C35.1987 92.8945 15 117.398 15 117.398" stroke="#F9F5F1" stroke-width="20" stroke-linecap="round"/>
<path d="M215 117.106C215 117.106 195.464 141.609 165.331 141.609C135.199 141.609 115 117.106 115 117.106" stroke="#F9F5F1" stroke-width="20" stroke-linecap="round"/>
<path d="M114.737 117.105C114.737 117.105 89.7368 137.038 89.7368 167.781C89.7368 198.524 114.737 219.132 114.737 219.132" stroke="#F9F5F1" stroke-width="20" stroke-linecap="round"/>
<path d="M115 15C115 15 140 34.9324 140 65.6756C140 96.4188 115 117.027 115 117.027" stroke="#F9F5F1" stroke-width="20" stroke-linecap="round"/>
<path d="M115 116.617C115 116.617 146.772 120.201 168.511 98.4619C190.25 76.7232 187.144 44.4734 187.144 44.4734" stroke="#F9F5F1" stroke-width="20" stroke-linecap="round"/>
<path d="M43.204 189.032C43.204 189.032 39.6207 157.26 61.3595 135.521C83.0982 113.783 115.348 116.888 115.348 116.888" stroke="#F9F5F1" stroke-width="20" stroke-linecap="round"/>
<path d="M114.783 117.106C114.783 117.106 111.2 148.878 132.939 170.616C154.677 192.355 186.927 189.249 186.927 189.249" stroke="#F9F5F1" stroke-width="20" stroke-linecap="round"/>
<path d="M42.3687 45.3085C42.3687 45.3085 74.1407 41.7252 95.8795 63.4639C117.618 85.2026 114.513 117.452 114.513 117.452" stroke="#F9F5F1" stroke-width="20" stroke-linecap="round"/>
</svg>
