<svg width="157" height="126" viewBox="0 0 157 126" fill="none" xmlns="http://www.w3.org/2000/svg">
<path d="M121.371 5L128.115 8.73832C138.282 14.3741 145.794 23.8179 148.998 34.9922L150.097 38.8229C151.557 43.9152 151.613 49.3076 150.258 54.429C147.613 64.4289 139.903 72.3003 129.959 75.1515L127.484 75.8613C122.208 77.3743 116.664 77.5779 111.327 76.4836M5 77.1999L9.8317 86.4071C16.6893 99.4748 27.6894 109.897 41.1075 116.041L42.3117 116.592C44.3956 117.547 46.545 118.351 48.7435 118.999C65.9968 124.083 84.6457 119.125 97.0958 106.143L97.783 105.427C105.417 97.4671 110.126 87.2706 111.327 76.4836M111.327 76.4836C109.95 76.201 108.586 75.832 107.244 75.3767L101.638 73.4746C94.5278 71.0618 88.5176 66.1802 84.6982 59.7153L83.7716 58.1468C81.825 54.8519 80.6976 51.1379 80.4843 47.3169L80.4073 45.9371C80.3622 45.1307 80.4047 44.3218 80.5338 43.5245L80.5623 43.3485C81.1258 39.8699 83.3445 36.8821 86.5116 35.3369C90.4632 33.4088 95.188 34.0579 98.4733 36.9802L100.863 39.1059C102.242 40.3319 103.392 41.7925 104.261 43.4199L106.443 47.5084C109.118 52.5187 110.737 58.0238 111.202 63.6842L111.466 66.9071C111.73 70.1223 111.679 73.3282 111.327 76.4836Z" stroke="#F992C9" stroke-width="10" stroke-linecap="round"/>
</svg>
